<?xml version="1.0" encoding="utf-8"?><svg xmlns="http://www.w3.org/2000/svg" xmlns:xlink="http://www.w3.org/1999/xlink"><symbol viewBox="0 0 488.152 488.152" id="svg--calendar" xmlns="http://www.w3.org/2000/svg"><path d="M177.854 269.311c0-6.115-4.96-11.069-11.08-11.069h-38.665c-6.113 0-11.074 4.954-11.074 11.069v38.66c0 6.123 4.961 11.079 11.074 11.079h38.665c6.12 0 11.08-4.956 11.08-11.079v-38.66zm96.629 0c0-6.115-4.961-11.069-11.069-11.069h-38.67c-6.113 0-11.074 4.954-11.074 11.069v38.66c0 6.123 4.961 11.079 11.074 11.079h38.67c6.108 0 11.069-4.956 11.069-11.079v-38.66zm96.634 0c0-6.115-4.961-11.069-11.074-11.069h-38.665c-6.12 0-11.08 4.954-11.08 11.069v38.66c0 6.123 4.96 11.079 11.08 11.079h38.665c6.113 0 11.074-4.956 11.074-11.079v-38.66zM177.854 365.95c0-6.125-4.96-11.075-11.08-11.075h-38.665c-6.113 0-11.074 4.95-11.074 11.075v38.653c0 6.119 4.961 11.074 11.074 11.074h38.665c6.12 0 11.08-4.956 11.08-11.074V365.95zm96.629 0c0-6.125-4.961-11.075-11.069-11.075h-38.67c-6.113 0-11.074 4.95-11.074 11.075v38.653c0 6.119 4.961 11.074 11.074 11.074h38.67c6.108 0 11.069-4.956 11.069-11.074V365.95zm96.634 0c0-6.125-4.961-11.075-11.069-11.075h-38.67c-6.12 0-11.08 4.95-11.08 11.075v38.653c0 6.119 4.96 11.074 11.08 11.074h38.67c6.108 0 11.069-4.956 11.069-11.074V365.95z"/><path d="M440.254 54.354v59.05c0 26.69-21.652 48.198-48.338 48.198h-30.493c-26.688 0-48.627-21.508-48.627-48.198V54.142h-137.44v59.262c0 26.69-21.938 48.198-48.622 48.198H96.235c-26.685 0-48.336-21.508-48.336-48.198v-59.05c-23.323.703-42.488 20.002-42.488 43.723v346.061c0 24.167 19.588 44.015 43.755 44.015h389.82c24.131 0 43.755-19.889 43.755-44.015V98.077c0-23.721-19.164-43.02-42.487-43.723zm-14.163 368.234c0 10.444-8.468 18.917-18.916 18.917H80.144c-10.448 0-18.916-8.473-18.916-18.917V243.835c0-10.448 8.467-18.921 18.916-18.921h327.03c10.448 0 18.916 8.473 18.916 18.921l.001 178.753z"/><path d="M96.128 129.945h30.162c9.155 0 16.578-7.412 16.578-16.567V16.573C142.868 7.417 135.445 0 126.29 0H96.128C86.972 0 79.55 7.417 79.55 16.573v96.805c0 9.155 7.422 16.567 16.578 16.567zm264.907 0h30.162c9.149 0 16.572-7.412 16.572-16.567V16.573C407.77 7.417 400.347 0 391.197 0h-30.162c-9.154 0-16.577 7.417-16.577 16.573v96.805c0 9.155 7.423 16.567 16.577 16.567z"/></symbol><symbol viewBox="0 0 455 455" id="svg--favorite" xmlns="http://www.w3.org/2000/svg"><path d="M326.632 10.346c-38.733 0-74.991 17.537-99.132 46.92-24.141-29.383-60.399-46.92-99.132-46.92C57.586 10.346 0 67.931 0 138.714 0 194.14 33.049 258.249 98.23 329.26c50.162 54.649 104.729 96.96 120.257 108.626l9.01 6.769 9.009-6.768c15.53-11.667 70.099-53.979 120.26-108.625C421.95 258.251 455 194.141 455 138.714c0-70.783-57.586-128.368-128.368-128.368z"/></symbol><symbol viewBox="0 0 232.484 232.484" id="svg--growth" xmlns="http://www.w3.org/2000/svg"><path d="M99 125.274c0-7.269-5.892-13.161-13.161-13.161H72.161c-7.269 0-13.161 5.892-13.161 13.161v91.678c0 7.269 5.892 13.161 13.161 13.161h13.678c7.269 0 13.161-5.892 13.161-13.161v-91.678zm-59 32c0-7.821-6.34-14.161-14.161-14.161H14.161C6.34 143.113 0 149.453 0 157.274v58.678c0 7.821 6.34 14.161 14.161 14.161h11.678c7.821 0 14.161-6.34 14.161-14.161v-58.678zm117-67c0-7.269-5.892-13.161-13.161-13.161h-13.678c-7.269 0-13.161 5.892-13.161 13.161v126.678c0 7.269 5.892 13.161 13.161 13.161h13.678c7.269 0 13.161-5.892 13.161-13.161V90.274zm73.353-50.518L204.695 6.842C202.48 4 199.33 2.37 196.053 2.37s-6.427 1.63-8.642 4.472l-25.658 32.913c-2.201 2.823-2.741 5.922-1.481 8.501 1.373 2.812 4.669 4.49 8.813 4.49l6.915.019v164.562c0 7.257 5.912 12.786 13.169 12.786h13.77c7.257 0 13.061-5.529 13.061-12.786V52.651l6.958.096c4.153 0 7.478-1.679 8.851-4.49 1.26-2.58.745-5.678-1.456-8.501z"/></symbol><symbol viewBox="0 0 95.494 95.494" id="svg--interface" xmlns="http://www.w3.org/2000/svg"><circle cx="10.906" cy="17.294" r="10.906"/><circle cx="10.906" cy="47.294" r="10.906"/><circle cx="10.906" cy="78.2" r="10.906"/><path d="M34.258 24.43h59.236a2.002 2.002 0 0 0 2-2l-.002-10.271a2 2 0 0 0-2-2H34.258a2 2 0 0 0-2 2V22.43a2 2 0 0 0 2 2zm59.234 15.728H34.258a2 2 0 0 0-2 2v10.271a2 2 0 0 0 2 2h59.236a2.002 2.002 0 0 0 2-2l-.002-10.271a2 2 0 0 0-2-2zm0 30.906H34.258a2 2 0 0 0-2 2v10.271a2 2 0 0 0 2 2h59.236a2.002 2.002 0 0 0 2-2l-.002-10.271a2 2 0 0 0-2-2z"/></symbol><symbol viewBox="0 0 512 512" id="svg--notification" xmlns="http://www.w3.org/2000/svg"><path d="M467.812 431.851l-36.629-61.056a181.363 181.363 0 0 1-25.856-93.312V224c0-67.52-45.056-124.629-106.667-143.04V42.667C298.66 19.136 279.524 0 255.993 0s-42.667 19.136-42.667 42.667V80.96C151.716 99.371 106.66 156.48 106.66 224v53.483c0 32.853-8.939 65.109-25.835 93.291L44.196 431.83a10.653 10.653 0 0 0-.128 10.752c1.899 3.349 5.419 5.419 9.259 5.419H458.66c3.84 0 7.381-2.069 9.28-5.397 1.899-3.329 1.835-7.468-.128-10.753zm-278.997 37.482C200.847 494.464 226.319 512 255.993 512s55.147-17.536 67.179-42.667H188.815z"/></symbol></svg>